<?xml version="1.0" standalone="no"?>
<!DOCTYPE svg PUBLIC "-//W3C//DTD SVG 20010904//EN"
 "http://www.w3.org/TR/2001/REC-SVG-20010904/DTD/svg10.dtd">
<svg version="1.0" xmlns="http://www.w3.org/2000/svg"
 width="272.000000pt" height="84.000000pt" viewBox="0 0 272.000000 84.000000"
 preserveAspectRatio="xMidYMid meet">

<g transform="translate(0.000000,84.000000) scale(0.100000,-0.100000)"
fill="#000000" stroke="none">
<path d="M87 693 c-2 -21 -2 -41 0 -45 2 -5 44 -8 92 -8 80 0 90 -2 105 -22
15 -22 16 -22 29 -5 17 20 27 22 27 4 0 -9 25 -13 85 -15 l85 -3 0 34 c0 31
-4 35 -31 41 -17 3 -49 6 -70 6 -32 0 -39 4 -39 19 0 27 -18 31 -155 31 l-123
0 -5 -37z m139 -1 c-15 -3 -16 -6 -5 -13 11 -6 8 -9 -8 -9 -13 0 -23 5 -23 10
0 6 -8 10 -17 10 -15 0 -16 -2 -3 -10 12 -8 11 -10 -7 -10 -15 0 -21 5 -17 14
4 10 21 14 52 14 26 -1 38 -3 28 -6z m208 -52 c4 -5 -2 -11 -13 -15 -22 -7
-51 9 -51 26 0 10 50 1 64 -11z"/>
<path d="M960 697 c-43 -7 -51 -11 -35 -18 11 -4 14 -8 6 -8 -8 -1 -11 -4 -8
-8 4 -3 15 1 24 9 10 9 43 20 73 26 30 5 42 10 25 10 -16 0 -55 -5 -85 -11z"/>
<path d="M1300 685 c-96 -7 -176 -13 -177 -14 -2 -1 -3 -7 -3 -15 0 -21 55
-64 98 -76 47 -14 332 -26 332 -14 0 5 -15 25 -32 43 -18 19 -25 32 -16 29 10
-4 19 -1 22 7 8 22 96 17 122 -7 19 -17 29 -18 65 -11 36 7 50 5 77 -10 46
-27 51 -14 5 14 -117 72 -108 69 -217 68 -55 -1 -180 -7 -276 -14z m145 -59
c28 -12 57 -31 65 -40 13 -17 9 -18 -85 -15 -68 3 -100 8 -103 17 -7 23 -33
42 -60 44 -23 1 43 11 113 16 11 1 43 -9 70 -22z"/>
<path d="M1771 677 c18 -15 89 -45 84 -36 -4 6 -22 17 -41 25 -31 13 -53 18
-43 11z"/>
<path d="M968 643 c-29 -7 -21 -31 10 -30 15 0 21 2 15 4 -7 3 -13 9 -13 14 0
14 28 11 33 -3 3 -10 8 -9 20 2 15 13 13 15 -16 16 -18 0 -40 -1 -49 -3z"/>
<path d="M1890 620 c13 -11 30 -20 39 -20 9 0 2 9 -17 20 -42 26 -51 26 -22 0z"/>
<path d="M1616 604 c-16 -41 -10 -44 92 -43 53 1 84 4 67 6 -38 5 -127 33
-141 45 -8 5 -14 3 -18 -8z"/>
<path d="M1950 598 c0 -2 9 -11 20 -21 11 -9 20 -13 20 -7 0 5 -9 14 -20 20
-11 6 -20 9 -20 8z"/>
<path d="M454 541 c-126 -31 -193 -138 -181 -287 4 -55 2 -64 -12 -64 -9 0
-26 6 -37 14 -13 9 -35 12 -67 9 -41 -5 -47 -8 -47 -29 0 -17 6 -24 19 -24 13
0 21 -8 23 -22 4 -30 31 -33 493 -48 409 -14 938 -9 1485 15 184 8 352 15 372
15 28 0 45 8 67 29 l31 30 -119 -6 c-131 -7 -161 -2 -141 22 9 10 11 40 8 93
-6 103 -35 164 -96 203 -114 72 -255 33 -317 -90 -14 -28 -17 -53 -13 -128 4
-66 2 -90 -6 -86 -6 4 -20 6 -31 5 -18 -3 -20 2 -17 48 l4 50 -43 0 c-25 0
-50 -7 -60 -16 -17 -15 -16 -18 22 -50 l41 -34 -89 0 c-239 -1 -897 -11 -962
-15 l-73 -5 8 28 c14 50 12 164 -3 201 -43 105 -156 167 -259 142z m1677 -116
c16 -34 16 -34 -10 -43 -26 -9 -26 -9 -22 34 1 24 6 44 10 44 3 -1 13 -16 22
-35z m-1667 -2 l24 -27 -29 -27 c-36 -34 -36 -43 0 -80 18 -18 24 -29 15 -29
-8 0 -23 9 -34 20 -21 21 -67 29 -88 16 -8 -5 -12 1 -12 21 0 21 3 24 10 13
13 -21 60 -2 80 32 12 22 12 33 3 58 -14 38 0 39 31 3z m123 -32 c-27 -28 -42
-101 -21 -101 6 0 24 -6 38 -14 l27 -14 -23 -24 c-13 -13 -16 -16 -8 -5 12 16
12 19 0 28 -8 5 -32 8 -52 7 -33 -3 -36 -2 -23 12 8 9 18 30 21 47 5 25 2 34
-14 44 -18 12 -17 14 22 34 51 26 65 21 33 -14z m1648 -27 c-25 -26 -26 -27
-39 -8 -13 18 -12 20 22 30 20 6 38 10 40 8 2 -1 -8 -14 -23 -30z m-1720 -39
c0 -13 -8 -21 -22 -23 -17 -3 -23 2 -23 16 0 10 3 22 7 26 13 13 38 1 38 -19z
m1555 4 c-7 -12 -17 -18 -27 -15 -8 3 -21 6 -29 6 -8 0 -14 5 -14 11 0 6 7 9
15 5 8 -3 25 -1 37 4 13 5 24 9 26 9 1 1 -2 -8 -8 -20z m88 -6 c5 -17 -26 -29
-40 -15 -6 6 -7 15 -3 22 9 14 37 9 43 -7z m-1521 -35 c-3 -7 -5 -2 -5 12 0
14 2 19 5 13 2 -7 2 -19 0 -25z m1566 12 c-3 -11 -10 -23 -16 -27 -7 -4 -8 0
-4 11 4 10 7 22 7 27 0 5 4 9 9 9 5 0 7 -9 4 -20z m-73 -33 c10 -4 8 -6 -7 -6
-13 -1 -27 8 -34 22 -11 21 -11 21 7 6 10 -9 26 -19 34 -22z m-1741 -42 c9
-12 4 -8 -11 7 -16 16 -28 34 -28 41 0 6 6 3 12 -8 6 -11 18 -29 27 -40z"/>
<path d="M1888 508 c7 -7 12 -30 12 -52 l0 -41 18 30 c11 17 26 36 35 44 28
22 20 31 -30 31 -37 0 -44 -3 -35 -12z"/>
<path d="M870 421 c1 -19 89 -146 101 -146 17 0 40 62 33 93 -2 13 0 22 8 22
7 0 8 3 2 9 -10 11 -144 31 -144 22z"/>
<path d="M1841 338 c0 -22 1 -22 8 -3 l8 20 5 -20 c5 -18 6 -18 7 3 1 13 -5
22 -14 22 -9 0 -15 -9 -14 -22z"/>
<path d="M143 270 c-1 -11 4 -20 13 -20 16 0 16 2 8 24 -8 22 -19 20 -21 -4z"/>
<path d="M780 235 c0 -25 4 -45 10 -45 9 0 13 12 25 73 2 11 -3 17 -16 17 -16
0 -19 -7 -19 -45z"/>
<path d="M1708 243 c6 -2 18 -2 25 0 6 3 1 5 -13 5 -14 0 -19 -2 -12 -5z"/>
<path d="M2474 238 c40 -22 72 -26 83 -9 9 14 3 16 -45 17 -41 1 -51 -1 -38
-8z"/>
</g>
</svg>
